<svg width="1076" height="264" viewBox="0 0 1076 264" fill="none" xmlns="http://www.w3.org/2000/svg">
<path d="M384.244 191.4V80.52H430.981C437.529 80.52 443.391 82.104 448.567 85.272C453.848 88.3344 458.02 92.5584 461.083 97.944C464.251 103.224 465.835 109.19 465.835 115.843C465.835 122.707 464.251 128.885 461.083 134.376C458.02 139.762 453.848 144.091 448.567 147.365C443.391 150.533 437.529 152.117 430.981 152.117H407.058V191.4H384.244ZM406.9 131.366H428.605C432.512 131.366 435.787 129.941 438.427 127.09C441.173 124.133 442.546 120.49 442.546 116.16C442.546 111.83 441.173 108.293 438.427 105.547C435.787 102.696 432.512 101.27 428.605 101.27H406.9V131.366Z" fill="#494D4B"/>
<path d="M521.226 192.984C512.671 192.984 505.067 191.136 498.412 187.44C491.758 183.638 486.53 178.464 482.728 171.917C478.926 165.37 477.025 157.872 477.025 149.424C477.025 141.082 478.926 133.637 482.728 127.09C486.53 120.542 491.758 115.421 498.412 111.725C505.067 107.923 512.671 106.022 521.226 106.022C529.57 106.022 537.069 107.923 543.723 111.725C550.377 115.421 555.606 120.542 559.408 127.09C563.21 133.637 565.111 141.082 565.111 149.424C565.111 157.872 563.21 165.37 559.408 171.917C555.606 178.464 550.377 183.638 543.723 187.44C537.069 191.136 529.57 192.984 521.226 192.984ZM521.226 174.134C525.451 174.134 529.253 173.078 532.633 170.966C536.013 168.749 538.601 165.792 540.396 162.096C542.297 158.4 543.248 154.176 543.248 149.424C543.248 144.672 542.297 140.448 540.396 136.752C538.601 133.056 536.013 130.152 532.633 128.04C529.253 125.928 525.451 124.872 521.226 124.872C516.896 124.872 513.041 125.928 509.661 128.04C506.281 130.152 503.641 133.056 501.74 136.752C499.838 140.448 498.888 144.672 498.888 149.424C498.888 154.176 499.838 158.4 501.74 162.096C503.641 165.792 506.281 168.749 509.661 170.966C513.041 173.078 516.896 174.134 521.226 174.134Z" fill="#494D4B"/>
<path d="M615.315 192.984C607.921 192.984 601.32 191.136 595.511 187.44C589.702 183.638 585.108 178.464 581.728 171.917C578.454 165.37 576.817 157.925 576.817 149.582C576.817 141.134 578.454 133.637 581.728 127.09C585.108 120.542 589.702 115.421 595.511 111.725C601.32 107.923 607.921 106.022 615.315 106.022C620.385 106.022 625.19 107.026 629.732 109.032C634.379 111.038 638.129 113.626 640.98 116.794V74.184H662.685V191.4H642.089L641.773 181.421C639.026 184.694 635.277 187.44 630.524 189.658C625.771 191.875 620.701 192.984 615.315 192.984ZM620.068 174.926C626.511 174.926 631.739 172.603 635.752 167.957C639.766 163.205 641.773 157.08 641.773 149.582C641.773 141.979 639.766 135.854 635.752 131.208C631.739 126.456 626.511 124.08 620.068 124.08C613.625 124.08 608.397 126.456 604.383 131.208C600.37 135.854 598.363 141.979 598.363 149.582C598.363 157.08 600.37 163.205 604.383 167.957C608.397 172.603 613.625 174.926 620.068 174.926Z" fill="#494D4B"/>
<path d="M720.906 192.984C712.984 192.984 705.855 191.083 699.518 187.282C693.286 183.48 688.322 178.306 684.625 171.758C681.034 165.211 679.239 157.766 679.239 149.424C679.239 141.187 681.034 133.795 684.625 127.248C688.322 120.701 693.286 115.526 699.518 111.725C705.855 107.923 712.984 106.022 720.906 106.022C728.405 106.022 735.217 107.395 741.343 110.141C747.575 112.886 752.433 116.741 755.919 121.704L744.036 135.96C741.818 132.898 738.755 130.31 734.847 128.198C730.939 125.981 726.979 124.872 722.965 124.872C718.529 124.872 714.568 125.981 711.083 128.198C707.703 130.31 705.01 133.214 703.003 136.91C701.102 140.606 700.151 144.778 700.151 149.424C700.151 154.07 701.155 158.242 703.162 161.938C705.168 165.634 707.914 168.59 711.4 170.808C714.885 172.92 718.793 173.976 723.124 173.976C727.243 173.976 731.045 173.078 734.531 171.283C738.016 169.382 741.185 166.742 744.036 163.363L755.919 177.619C752.327 182.266 747.363 186.014 741.026 188.866C734.689 191.611 727.982 192.984 720.906 192.984Z" fill="#494D4B"/>
<path d="M801.866 192.984C794.895 192.984 788.61 191.083 783.012 187.282C777.415 183.48 772.926 178.306 769.546 171.758C766.272 165.211 764.635 157.766 764.635 149.424C764.635 140.87 766.272 133.373 769.546 126.931C772.926 120.384 777.467 115.262 783.171 111.566C788.98 107.87 795.528 106.022 802.816 106.022C808.731 106.022 813.906 107.237 818.342 109.666C822.778 111.989 826.316 115.051 828.957 118.853V107.765H850.503V191.4H828.799V180.154C825.841 183.85 821.986 186.912 817.233 189.341C812.586 191.77 807.463 192.984 801.866 192.984ZM807.727 174.134C814.17 174.134 819.398 171.864 823.412 167.323C827.426 162.782 829.432 156.816 829.432 149.424C829.432 142.032 827.426 136.066 823.412 131.525C819.398 126.984 814.17 124.714 807.727 124.714C801.39 124.714 796.215 126.984 792.201 131.525C788.293 136.066 786.339 142.032 786.339 149.424C786.339 156.816 788.293 162.782 792.201 167.323C796.215 171.864 801.39 174.134 807.727 174.134Z" fill="#494D4B"/>
<path d="M901.27 192.984C893.56 192.984 886.695 191.717 880.674 189.182C874.654 186.648 869.795 183.058 866.099 178.411L879.724 166.848C882.892 170.333 886.483 172.867 890.497 174.451C894.51 175.93 898.577 176.669 902.696 176.669C905.97 176.669 908.611 175.93 910.617 174.451C912.624 172.973 913.628 170.914 913.628 168.274C913.628 165.95 912.677 164.102 910.776 162.73C908.875 161.462 904.333 159.878 897.151 157.978C886.483 155.232 878.932 151.483 874.496 146.731C870.588 142.507 868.634 137.28 868.634 131.05C868.634 126.086 870.112 121.757 873.07 118.061C876.027 114.259 879.935 111.302 884.793 109.19C889.652 107.078 894.933 106.022 900.636 106.022C907.185 106.022 913.364 107.184 919.173 109.507C924.982 111.83 929.84 114.998 933.748 119.011L922.024 131.842C919.067 129.096 915.634 126.826 911.726 125.03C907.924 123.13 904.386 122.179 901.112 122.179C893.507 122.179 889.705 124.819 889.705 130.099C889.81 132.634 890.972 134.64 893.19 136.118C895.303 137.597 900.108 139.339 907.607 141.346C917.641 143.986 924.718 147.47 928.837 151.8C932.428 155.496 934.223 160.406 934.223 166.531C934.223 171.6 932.745 176.141 929.787 180.154C926.936 184.166 923.028 187.334 918.064 189.658C913.1 191.875 907.502 192.984 901.27 192.984Z" fill="#494D4B"/>
<path d="M958.825 191.4V127.248H942.982V107.765H958.825V86.3808H980.371V107.765H997.957V127.248H980.371V191.4H958.825Z" fill="#494D4B"/>
<path d="M1012.47 191.4V107.765H1033.38L1033.7 121.546C1036.44 117.005 1040.04 113.309 1044.47 110.458C1049.01 107.501 1053.77 106.022 1058.73 106.022C1060.63 106.022 1062.37 106.181 1063.96 106.498C1065.65 106.709 1067.07 107.026 1068.24 107.448L1062.37 131.208C1061.21 130.574 1059.73 130.046 1057.94 129.624C1056.14 129.202 1054.35 128.99 1052.55 128.99C1047.38 128.99 1042.99 130.786 1039.4 134.376C1035.92 137.861 1034.17 142.296 1034.17 147.682V191.4H1012.47Z" fill="#494D4B"/>
<path d="M251.672 131.258C251.833 152.158 246.488 172.732 236.175 190.911C234.839 193.272 233.424 195.582 231.93 197.841C231.192 198.989 230.232 199.979 229.108 200.753C227.984 201.528 226.718 202.071 225.382 202.353C224.046 202.634 222.667 202.647 221.326 202.392C219.985 202.137 218.708 201.618 217.569 200.865C216.43 200.113 215.452 199.142 214.691 198.009C213.931 196.875 213.402 195.602 213.137 194.263C212.872 192.924 212.876 191.546 213.148 190.209C213.419 188.871 213.954 187.601 214.721 186.471C224.564 171.532 230.175 154.205 230.957 136.332C231.739 118.459 227.663 100.709 219.161 84.967C210.66 69.2253 198.051 56.0807 182.676 46.9306C167.3 37.7804 149.732 32.9665 131.839 33.0007C97.4456 33.0677 66.9511 51.1197 49.2257 78.0921C38.6296 94.1837 32.991 113.031 33.0094 132.297C33.0277 151.563 38.7021 170.4 49.3289 186.471C50.8355 188.754 51.3733 191.542 50.8239 194.222C50.2746 196.901 48.6831 199.253 46.3996 200.759C44.1161 202.266 41.3276 202.803 38.6476 202.254C35.9676 201.705 33.6156 200.114 32.109 197.831C20.3258 179.952 13.5576 159.24 12.5107 137.855C11.4637 116.469 16.1764 95.1949 26.157 76.2516C36.1375 57.3082 51.0201 41.39 69.2517 30.1582C87.4834 18.9263 108.396 12.7923 129.807 12.3963C130.56 12.3808 131.308 12.3757 132.056 12.3757C163.677 12.3106 194.031 24.7921 216.458 47.0805C238.884 69.369 251.548 99.6433 251.672 131.258V131.258Z" fill="#494D4B"/>
<path d="M59.8459 150.443L78.5398 243.42C79.662 249.002 85.0973 252.617 90.6798 251.495C96.2624 250.373 99.8782 244.939 98.756 239.357L80.0622 146.38C78.94 140.798 73.5047 137.183 67.9221 138.305C62.3395 139.427 58.7237 144.861 59.8459 150.443Z" fill="#04D361"/>
<path d="M78.1835 241.323L73.444 242.277C66.4016 243.695 59.0835 242.369 52.9865 238.57C46.8895 234.772 42.4744 228.788 40.6441 221.843C40.5049 221.306 40.3759 220.77 40.2676 220.224L33.4756 186.486C32.0037 179.163 33.5002 171.555 37.6362 165.334C41.7723 159.113 48.2094 154.789 55.533 153.311L60.2725 152.357L68.5859 193.648L78.1835 241.323Z" fill="#494D4B"/>
<path d="M78.1837 241.323L73.4442 242.277C66.4018 243.695 59.0837 242.369 52.9867 238.57C46.8898 234.772 42.4746 228.788 40.6444 221.843C50.6609 213.168 60.0019 203.742 68.5861 193.648L78.1837 241.323Z" fill="#494D4B"/>
<path d="M238.619 178.778L236.174 190.91C234.839 193.272 233.424 195.582 231.93 197.84C231.191 198.988 230.232 199.978 229.108 200.753C227.984 201.527 226.717 202.071 225.382 202.352C224.046 202.633 222.667 202.647 221.326 202.392C219.985 202.136 218.708 201.617 217.569 200.865C216.43 200.112 215.452 199.141 214.691 198.008C213.931 196.875 213.402 195.602 213.137 194.263C212.872 192.924 212.876 191.546 213.148 190.208C213.419 188.871 213.954 187.6 214.72 186.471C221.712 175.892 226.593 164.061 229.094 151.63C232.975 154.881 235.909 159.119 237.585 163.896C239.261 168.673 239.618 173.814 238.619 178.778Z" fill="#494D4B"/>
<path d="M226.391 58.276L211.595 73.0693C202.376 60.6045 190.353 50.4828 176.498 43.5221C162.643 36.5615 147.345 32.9571 131.839 33.0001C97.4454 33.0671 66.9509 51.1192 49.2256 78.0915L34.2181 63.0868C45.0384 47.7139 59.3346 35.1109 75.9444 26.3028C92.5541 17.4946 111.008 12.7298 129.807 12.3957C130.56 12.3803 131.308 12.3751 132.055 12.3751C150.238 12.3344 168.19 16.4487 184.539 24.4039C200.889 32.3591 215.204 43.9447 226.391 58.276V58.276Z" fill="#8257E5"/>
<path d="M183.82 146.279L165.126 239.257C164.004 244.838 167.62 250.273 173.202 251.395C178.785 252.517 184.22 248.901 185.342 243.32L204.036 150.342C205.159 144.761 201.543 139.327 195.96 138.205C190.378 137.083 184.942 140.698 183.82 146.279Z" fill="#04D361"/>
<path d="M230.574 186.486L223.782 220.223C222.307 227.547 217.983 233.984 211.762 238.12C205.54 242.256 197.93 243.751 190.605 242.277L185.866 241.323L190.775 216.949L203.777 152.357L208.516 153.311C215.839 154.79 222.276 159.113 226.417 165.33C226.987 166.187 227.509 167.075 227.98 167.991C230.922 173.682 231.837 180.205 230.574 186.486V186.486Z" fill="#494D4B"/>
<path d="M230.574 186.486L223.782 220.224C222.307 227.547 217.983 233.984 211.762 238.12C205.54 242.256 197.93 243.751 190.605 242.277L185.866 241.323L190.775 216.949C204.904 202.017 217.378 185.602 227.98 167.991C230.922 173.682 231.837 180.205 230.574 186.486V186.486Z" fill="#494D4B"/>
</svg>
